<?xml version="1.0" encoding="UTF-8" standalone="no"?>
<svg
   width="108.02941pt"
   height="118.08875pt"
   viewBox="0 0 108.02941 118.08875"
   xml:space="preserve"
   version="1.1"
   id="svg28"
   sodipodi:docname="GodotPostgresql.svg"
   inkscape:version="1.1 (ce6663b3b7, 2021-05-25)"
   xmlns:inkscape="http://www.inkscape.org/namespaces/inkscape"
   xmlns:sodipodi="http://sodipodi.sourceforge.net/DTD/sodipodi-0.dtd"
   xmlns="http://www.w3.org/2000/svg"
   xmlns:svg="http://www.w3.org/2000/svg"><defs
   id="defs32" /><sodipodi:namedview
   id="namedview30"
   pagecolor="#ffffff"
   bordercolor="#666666"
   borderopacity="1.0"
   inkscape:pageshadow="2"
   inkscape:pageopacity="0.0"
   inkscape:pagecheckerboard="0"
   inkscape:document-units="pt"
   showgrid="false"
   inkscape:object-nodes="false"
   fit-margin-top="0"
   fit-margin-left="0"
   fit-margin-right="0"
   fit-margin-bottom="0"
   inkscape:zoom="0.94543818"
   inkscape:cx="332.12113"
   inkscape:cy="277.64904"
   inkscape:window-width="1920"
   inkscape:window-height="966"
   inkscape:window-x="0"
   inkscape:window-y="27"
   inkscape:window-maximized="1"
   inkscape:current-layer="svg28" />
<g
   id="orginal"
   style="clip-rule:nonzero;fill-rule:nonzero;stroke:#000000;stroke-miterlimit:4"
   transform="translate(0,25.325271)">
	</g>
<g
   id="Layer_x0020_3"
   style="clip-rule:nonzero;fill:none;fill-rule:nonzero;stroke:#ffffff;stroke-width:12.465;stroke-linecap:round;stroke-linejoin:round;stroke-miterlimit:4;stroke-dasharray:none;stroke-opacity:1"
   transform="matrix(0.25726448,0,0,0.25726448,0,6.5152927)">
<path
   style="fill:#000000;stroke:#ffffff;stroke-width:12.465;stroke-linecap:butt;stroke-linejoin:miter;stroke-miterlimit:4;stroke-dasharray:none;stroke-opacity:1"
   d="m 323.205,324.227 c 2.833,-23.601 1.984,-27.062 19.563,-23.239 l 4.463,0.392 c 13.517,0.615 31.199,-2.174 41.587,-7 22.362,-10.376 35.622,-27.7 13.572,-23.148 -50.297,10.376 -53.755,-6.655 -53.755,-6.655 C 401.746,185.774 423.948,85.741 404.784,61.255 352.514,-5.534 262.036,26.049 260.522,26.869 l -0.482,0.089 c -9.938,-2.062 -21.06,-3.294 -33.554,-3.496 -22.761,-0.374 -40.032,5.967 -53.133,15.904 0,0 -161.408,-66.498 -153.899,83.628 1.597,31.936 45.777,241.655 98.47,178.31 19.259,-23.163 37.871,-42.748 37.871,-42.748 9.242,6.14 20.307,9.272 31.912,8.147 l 0.897,-0.765 c -0.281,2.876 -0.157,5.689 0.359,9.019 -13.572,15.167 -9.584,17.83 -36.723,23.416 -27.457,5.659 -11.326,15.734 -0.797,18.367 12.768,3.193 42.305,7.716 62.268,-20.224 l -0.795,3.188 c 5.325,4.26 4.965,30.619 5.72,49.452 0.756,18.834 2.017,36.409 5.856,46.771 3.839,10.36 8.369,37.05 44.036,29.406 29.809,-6.388 52.6,-15.582 54.677,-101.107"
   id="path3" />
<path
   style="fill:#336791;stroke:#ffffff;stroke-width:12.465;stroke-miterlimit:4;stroke-dasharray:none;stroke-opacity:1"
   d="m 402.395,271.23 c -50.302,10.376 -53.76,-6.655 -53.76,-6.655 53.111,-78.808 75.313,-178.843 56.153,-203.326 -52.27,-66.785 -142.752,-35.2 -144.262,-34.38 l -0.486,0.087 c -9.938,-2.063 -21.06,-3.292 -33.56,-3.496 -22.761,-0.373 -40.026,5.967 -53.127,15.902 0,0 -161.411,-66.495 -153.904,83.63 1.597,31.938 45.776,241.657 98.471,178.312 19.26,-23.163 37.869,-42.748 37.869,-42.748 9.243,6.14 20.308,9.272 31.908,8.147 l 0.901,-0.765 c -0.28,2.876 -0.152,5.689 0.361,9.019 -13.575,15.167 -9.586,17.83 -36.723,23.416 -27.459,5.659 -11.328,15.734 -0.796,18.367 12.768,3.193 42.307,7.716 62.266,-20.224 l -0.796,3.188 c 5.319,4.26 9.054,27.711 8.428,48.969 -0.626,21.259 -1.044,35.854 3.147,47.254 4.191,11.4 8.368,37.05 44.042,29.406 29.809,-6.388 45.256,-22.942 47.405,-50.555 1.525,-19.631 4.976,-16.729 5.194,-34.28 l 2.768,-8.309 c 3.192,-26.611 0.507,-35.196 18.872,-31.203 l 4.463,0.392 c 13.517,0.615 31.208,-2.174 41.591,-7 22.358,-10.376 35.618,-27.7 13.573,-23.148 z"
   id="path5" />
<path
   d="m 215.866,286.484 c -1.385,49.516 0.348,99.377 5.193,111.495 4.848,12.118 15.223,35.688 50.9,28.045 29.806,-6.39 40.651,-18.756 45.357,-46.051 3.466,-20.082 10.148,-75.854 11.005,-87.281"
   id="path7"
   style="stroke:#ffffff;stroke-width:12.465;stroke-miterlimit:4;stroke-dasharray:none;stroke-opacity:1" />
<path
   d="m 173.104,38.256 c 0,0 -161.521,-66.016 -154.012,84.109 1.597,31.938 45.779,241.664 98.473,178.316 19.256,-23.166 36.671,-41.335 36.671,-41.335"
   id="path9"
   style="stroke:#ffffff;stroke-width:12.465;stroke-miterlimit:4;stroke-dasharray:none;stroke-opacity:1" />
<path
   d="m 260.349,26.207 c -5.591,1.753 89.848,-34.889 144.087,34.417 19.159,24.484 -3.043,124.519 -56.153,203.329"
   id="path11"
   style="stroke:#ffffff;stroke-width:12.465;stroke-miterlimit:4;stroke-dasharray:none;stroke-opacity:1" />
<path
   style="fill:#336791;fill-opacity:1;stroke:#ffffff;stroke-width:12.465;stroke-linejoin:miter;stroke-miterlimit:4;stroke-dasharray:none;stroke-opacity:1"
   d="m 348.282,263.953 c 0,0 3.461,17.036 53.764,6.653 22.04,-4.552 8.776,12.774 -13.577,23.155 -18.345,8.514 -59.474,10.696 -60.146,-1.069 -1.729,-30.355 21.647,-21.133 19.96,-28.739 -1.525,-6.85 -11.979,-13.573 -18.894,-30.338 -6.037,-14.633 -82.796,-126.849 21.287,-110.183 0.47662,-0.0986 0.40994,-1.7195 -0.26193,-4.48364 -0.67187,-2.76414 -3.6633,-14.99134 -3.6633,-14.99134 L 382.5755,75.709415 364.03832,43.955863 325.29624,64.310231 303.57821,45.665294 318.46671,1.9585155 284.20053,-13.610167 l -20.46527,39.200173 -34.14522,-2.275055 -12.67998,-41.300865 -36.1237,8.0708608 8.11158,40.7918402 -26.05684,12.866047 -37.437,-24.087842 -22.10703,28.750505 35.27061,35.301911 c -2.6295,18.138312 -3.80743,23.255002 -5.61226,39.950202 -1.22211,11.35245 -1.02242,18.93739 -1.02242,18.93739"
   id="path13"
   sodipodi:nodetypes="cccccccscccccccccccccccccc" />
<path
   d="m 188.604,274.334 c -13.577,15.166 -9.584,17.829 -36.723,23.417 -27.459,5.66 -11.326,15.733 -0.797,18.365 12.768,3.195 42.307,7.718 62.266,-20.229 6.078,-8.509 -0.036,-22.086 -8.385,-25.547 -4.034,-1.671 -9.428,-3.765 -16.361,3.994 z"
   id="path15"
   style="stroke:#ffffff;stroke-width:12.465;stroke-miterlimit:4;stroke-dasharray:none;stroke-opacity:1" />
<path
   d="m 187.715,274.069 c -1.368,-8.917 2.93,-19.528 7.536,-31.942 6.922,-18.626 22.893,-37.255 10.117,-96.339 -9.523,-44.029 -73.396,-9.163 -73.436,-3.193 -0.039,5.968 2.889,30.26 -1.067,58.548 -5.162,36.913 23.488,68.132 56.479,64.938"
   id="path17"
   style="stroke:#ffffff;stroke-width:12.465;stroke-miterlimit:4;stroke-dasharray:none;stroke-opacity:1" />


<path
   d="m 350.676,123.432 c 0.863,15.994 -3.445,26.888 -3.988,43.914 -0.804,24.748 11.799,53.074 -7.191,81.435"
   id="path23"
   style="stroke:#ffffff;stroke-width:12.465;stroke-miterlimit:4;stroke-dasharray:none;stroke-opacity:1" />
<path
   style="stroke:#ffffff;stroke-width:12.465;stroke-miterlimit:4;stroke-dasharray:none;stroke-opacity:1"
   d="M 0,60.232"
   id="path25" />
<circle
   style="fill:#ffffff;fill-opacity:1;stroke:none;stroke-width:16.9037;stroke-miterlimit:4;stroke-dasharray:none;stroke-dashoffset:3;stroke-opacity:1;paint-order:markers stroke fill"
   id="path3127"
   cx="179.37843"
   cy="153.79678"
   r="28.504623" /><circle
   style="fill:#ffffff;fill-opacity:1;stroke:none;stroke-width:14.6471;stroke-miterlimit:4;stroke-dasharray:none;stroke-dashoffset:3;stroke-opacity:1;paint-order:markers stroke fill"
   id="circle4067"
   cx="317.98291"
   cy="147.48425"
   r="24.699368" /><circle
   style="fill:#464646;fill-opacity:1;stroke:none;stroke-width:12.465;stroke-miterlimit:4;stroke-dasharray:none;stroke-dashoffset:3;stroke-opacity:1;paint-order:markers stroke fill"
   id="path4091"
   cx="188.20674"
   cy="157.73222"
   r="15.479161" /><circle
   style="fill:#464646;fill-opacity:1;stroke:none;stroke-width:12.465;stroke-miterlimit:4;stroke-dasharray:none;stroke-dashoffset:3;stroke-opacity:1;paint-order:markers stroke fill"
   id="circle4723"
   cx="312.66821"
   cy="150.89938"
   r="15.479161" /></g>
</svg>
